<?xml version="1.0" standalone="no"?>
<!DOCTYPE svg PUBLIC "-//W3C//DTD SVG 20010904//EN"
 "http://www.w3.org/TR/2001/REC-SVG-20010904/DTD/svg10.dtd">
<svg version="1.0" xmlns="http://www.w3.org/2000/svg"
 width="511.000000pt" height="511.000000pt" viewBox="0 0 511.000000 511.000000"
 preserveAspectRatio="xMidYMid meet">
<metadata>
Created by potrace 1.14, written by Peter Selinger 2001-2017
</metadata>
<g transform="translate(0.000000,511.000000) scale(0.100000,-0.100000)"
fill="#000000" stroke="none">
<path d="M0 2555 l0 -2555 2555 0 2555 0 0 2555 0 2555 -2555 0 -2555 0 0
-2555z m2225 438 c75 -203 156 -420 180 -483 24 -63 86 -230 139 -370 52 -140
106 -285 120 -322 l26 -68 -143 0 -142 0 -59 168 c-32 92 -67 191 -78 220
l-19 52 -308 0 -307 0 -17 -47 c-9 -27 -44 -126 -78 -220 l-61 -173 -140 0
c-129 0 -140 1 -133 18 4 9 36 96 71 192 36 96 91 245 124 330 44 116 312 833
391 1048 8 21 12 22 153 22 l144 0 137 -367z m690 215 c43 -84 90 -175 105
-203 15 -27 64 -122 110 -210 46 -88 84 -161 85 -163 1 -1 28 49 60 110 32 62
74 145 95 183 20 39 79 152 130 253 l94 182 143 0 143 0 -20 -40 c-11 -22 -91
-169 -177 -328 -86 -158 -196 -361 -244 -450 l-89 -164 0 -314 0 -314 -135 0
-135 0 0 313 c0 244 -3 317 -13 332 -8 11 -47 83 -87 160 -40 77 -76 145 -80
150 -4 6 -32 58 -63 117 -31 59 -103 194 -160 300 -57 106 -109 203 -116 216
l-12 22 145 0 144 0 77 -152z"/>
<path d="M1931 3080 c-18 -70 -92 -298 -159 -487 l-61 -173 230 0 c160 0 229
3 229 11 0 6 -45 142 -100 303 -54 160 -105 314 -113 341 l-14 50 -12 -45z"/>
</g>
</svg>
